<svg id="Layer_1" data-name="Layer 1" xmlns="http://www.w3.org/2000/svg" viewBox="0 0 250 250"><defs><style>.cls-1{fill:#ffd103;}.cls-2{fill:#d7b029;}.cls-3{fill:none;stroke:#ffd103;stroke-linecap:round;stroke-miterlimit:10;stroke-width:1.58px;}.cls-4{fill:#f1f1f2;}.cls-5{fill:#ec1c24;}.cls-6{fill:#e6e7e8;}</style></defs><title>logo-other</title><path class="cls-1" d="M178.09,57.44a7.64,7.64,0,0,1,1,4.17c-.65,3.84-3.34,9.09-4.91,11.44-2.94,4.39-8.68,6-12.13,7.77s-5.92.95-8.57,3.32a8,8,0,0,0,.45,3.31s.44,1.46,5.67,2.72a20.81,20.81,0,0,0,16.54-2.79c6.59-4.37,8.14-9.32,9.1-16,.33-2.33-2.15-6.57-3.58-9.63a3.59,3.59,0,0,1,.26-3.24Z"/><path class="cls-2" d="M179.68,57.87a12.83,12.83,0,0,1,.76,3.54c.21,4.2-.44,11.38-2,14.38-2.29,4.35-9.4,9.76-14,9.46-3.88-.25-8.6-.5-11-1.11a8,8,0,0,0,.46,3.31s.44,1.46,5.67,2.72a20.81,20.81,0,0,0,16.54-2.79c6.59-4.37,8.14-9.31,9.1-16,.36-2.48-2.14-6.63-3.57-9.63-.64-1.33.26-3.24.26-3.24Z"/><path class="cls-3" d="M137.82,25.62c-.89-3.67-5.54-2.7-5.54.71s1.5,3.52,4.91,3.52l2.09-.21c8.9-1.12,15.17-3.81,15.17-7,0-4.15-10.94-7.51-24.43-7.51s-24.43,3.36-24.43,7.51c0,3.18,6.42,5.9,15.48,7h2.08c3.41,0,4.91-.11,4.91-3.52s-4.64-4.38-5.53-.71"/><path class="cls-4" d="M194,241.55s-14.69-.19-20.8,1c-9.45,1.82-14.68,4.9-42.82,6.95s-47.92-2.35-47.92-7.94,24.11-8.23,47.92-5.19c28,3.58,33.21,2.4,42.82,3.75C179.15,240.94,194,241.55,194,241.55Z"/><rect class="cls-5" x="81.95" width="2.23" height="165.59"/><rect class="cls-1" x="81.95" width="2.23" height="20.33"/><rect class="cls-1" x="81.95" y="145.36" width="2.23" height="20.33"/><path class="cls-4" d="M190.91,194.25s8.39-2,8.9-12c.56-11-13.32-12.35-13.32-12.35a19.55,19.55,0,0,0-27-19.1,33.57,33.57,0,1,0-64.67-14.22c0,.06,0,.12,0,.18a29.35,29.35,0,0,0-3.11-.34A28.57,28.57,0,0,0,84.43,193a10,10,0,0,0-.27,1.86,10.19,10.19,0,0,0,16.22,8.72,25.37,25.37,0,0,0,44.91-.92,25.86,25.86,0,0,0,33-4.49L214.83,200S197.3,198.37,190.91,194.25Z"/><path class="cls-6" d="M145.29,165.59a55.21,55.21,0,0,1-10,5.41A27.72,27.72,0,0,1,124,173.33a19.69,19.69,0,0,1-5.81-1.14l-1.38-.54c-.44-.22-.87-.47-1.3-.7s-.87-.46-1.28-.72l-1.17-.87a29,29,0,0,1-7.43-8.64,46.63,46.63,0,0,0,8.4,7.23,20.13,20.13,0,0,0,10.06,3.19c.89,0,1.78,0,2.67,0s1.79-.21,2.68-.37a46.17,46.17,0,0,0,5.32-1.33C138.27,168.3,141.74,166.9,145.29,165.59Z"/><path class="cls-6" d="M179.62,186.13a18.21,18.21,0,0,1-1.68,12.33,18.82,18.82,0,0,1-4,5.11,22.37,22.37,0,0,1-5.44,3.55A23.12,23.12,0,0,1,155.86,209a17.13,17.13,0,0,1-6.09-2,11.69,11.69,0,0,1-4.49-4.36,16.25,16.25,0,0,0,10.78,4.07,24.71,24.71,0,0,0,5.74-.5,23.52,23.52,0,0,0,5.45-1.76,20.7,20.7,0,0,0,8.7-7.15A23.36,23.36,0,0,0,179.62,186.13Z"/><path class="cls-6" d="M100.37,203.55a14.87,14.87,0,0,1-5.65,1.65,9.48,9.48,0,0,1-6-1.4,9.2,9.2,0,0,1-3.68-5,14.08,14.08,0,0,1-.61-5.86,43.56,43.56,0,0,0,2.12,5.22A10,10,0,0,0,89.87,202a10.43,10.43,0,0,0,4.87,1.53A51.82,51.82,0,0,0,100.37,203.55Z"/><path class="cls-6" d="M147.4,195.5a20.27,20.27,0,0,1-1.52,9.25,20.66,20.66,0,0,1-5.8,7.75,26.57,26.57,0,0,1-18.34,5.78,27.37,27.37,0,0,1-9.54-2.24,23,23,0,0,1-8-5.73,21.1,21.1,0,0,1-4.63-8.48,23.94,23.94,0,0,1-.59-9.34,31.9,31.9,0,0,0,2.46,8.67,21.59,21.59,0,0,0,5,7A24.87,24.87,0,0,0,122,214.25,26.74,26.74,0,0,0,138.18,210a21,21,0,0,0,6-6.16A25.19,25.19,0,0,0,147.4,195.5Z"/></svg>