<svg id="Layer_1" data-name="Layer 1" xmlns="http://www.w3.org/2000/svg" viewBox="0 0 100 100"><defs><style>.cls-1{fill:#ff7bac;}</style></defs><title>logo-paperplane</title><path class="cls-1" d="M14.69,52.46a5.49,5.49,0,0,1-.7,2.1l12.4,5.72a5.5,5.5,0,0,1,.82-2Z"/><path class="cls-1" d="M44.69,72.16a5.51,5.51,0,0,1-2-.84L40,79.91a5.5,5.5,0,0,1,2.14.52Z"/><path class="cls-1" d="M34.3,66.22a5.49,5.49,0,0,1-2.13.57l4.61,14a5.5,5.5,0,0,1,2-.82Z"/><path class="cls-1" d="M84.78,20l.81-.61a5.5,5.5,0,0,1-.72-1.82L13.48,48.32a5.53,5.53,0,0,1,1,2Z"/><path class="cls-1" d="M85.73,19.61l-.95.41L35.51,57.13a5.57,5.57,0,0,1,1.33,1.75L85,22.59,48.42,61.89a5.58,5.58,0,0,1,1.67,1.44L87.61,23,74.53,80.64a5.55,5.55,0,0,1,2.23.11L90.09,22A5.54,5.54,0,0,1,85.73,19.61Z"/><path class="cls-1" d="M84.78,20l.95-.41-.13-.21Z"/><path class="cls-1" d="M50.57,69.39a5.57,5.57,0,0,1-1.24,1.53l4.71,3L43.64,81.44a5.56,5.56,0,0,1,1.26,1.8L56,75.13,70.25,84a5.55,5.55,0,0,1,1-1.65Z"/><path class="cls-1" d="M12.87,51.62a3.67,3.67,0,1,0,0,.19Q12.88,51.72,12.87,51.62Z"/><path class="cls-1" d="M94,16.19v-.13a3.67,3.67,0,0,0-.9-2l-.15-.16a3.69,3.69,0,0,0-6.29,2.61c0,.11,0,.22,0,.32a3.66,3.66,0,0,0,.45,1.46,3.7,3.7,0,0,0,3.23,1.9h.2A3.69,3.69,0,0,0,94,16.5C94,16.39,94,16.29,94,16.19Z"/><path class="cls-1" d="M76.35,82.55a3.69,3.69,0,1,0,2.72,3.56A3.68,3.68,0,0,0,76.35,82.55Z"/><path class="cls-1" d="M39.47,81.77h-.06l0,.09Z"/><path class="cls-1" d="M43.35,84.38a3.69,3.69,0,0,0-3.53-2.63l-.35,0,0,.09,0-.09a3.69,3.69,0,1,0,3.93,2.61Z"/><polygon class="cls-1" points="32.48 60.67 32.48 60.66 32.48 60.67 32.48 60.67"/><polygon class="cls-1" points="32.47 60.65 32.46 60.66 32.48 60.66 32.47 60.65"/><path class="cls-1" d="M35.31,60A3.71,3.71,0,0,0,34,58.27a3.69,3.69,0,0,0-5.83,2.82c0,.06,0,.12,0,.18a3.69,3.69,0,0,0,3.42,3.68h.27A3.69,3.69,0,0,0,35.31,60Zm-2.83.65h0Z"/><path class="cls-1" d="M48.8,64.7a3.71,3.71,0,0,0-1.7-1.4,3.69,3.69,0,1,0,.54,6.56A3.71,3.71,0,0,0,49,68.4a3.68,3.68,0,0,0-.19-3.7Z"/></svg>