<svg id="Layer_1" data-name="Layer 1" xmlns="http://www.w3.org/2000/svg" viewBox="0 0 100 100"><defs><style>.cls-1{fill:#3fa9f5;}</style></defs><title>logo-chinese</title><path class="cls-1" d="M10.32,33H14V25.79c-2.51,4.3-5.71,7.62-10.94,9L8.41,24.41l-4.32-.55L3.84,23a19.65,19.65,0,0,1,2.23-.56,43.44,43.44,0,0,0,5.77-.74c.85-.23,2-1.47,2-2.21s-1.22-1.62-2-2.34a9.89,9.89,0,0,0-1.81-1c2-1.83,3.73-3.58,5.6-5.19s2.74-.9,2.87,1.39c.16,2.81.41,5.62.62,8.43l.82.62,6-5.16c1.21-.05,2.31,1.48,2.44,3.25.25,3.38-3.57,2.1-5,4.12,2.32,3.13,5.87,4,10.68,4.37L27,33.39l-6.6-7.82-.7.3c.19,2.76.36,5.52.57,8.27.18,2.3-.32,4.29-2.81,5-2.29.63-3.79-.54-4.84-2.53C12.09,35.51,11.34,34.53,10.32,33Z"/><path class="cls-1" d="M80.48,87l-12-10.07,6.87-.81c.09-3.37.51-7.81.28-12.22-.4-7.55-1.34-15-4.07-22.21-.76-2-.12-4.52-.12-6.81l1.44-.29c.77,1.47,1.93,2.86,2.24,4.42,1.09,5.56,1.58,11.25,2.87,16.76,1.83,7.85,4.11,15.6,6.31,23.37.8,2.84,1.61,5.41-2.5,6.29C81.2,85.56,80.81,86.59,80.48,87Z"/><path class="cls-1" d="M82.09,43.39c.64,2.57,3.06,4.54,1.91,7.76a3.44,3.44,0,0,0,.32,2.79c2.84,3.73,5.86,7.33,8.81,11l4.57,5.61c-7,2.18-8.12,1.65-10.67-4.19-1.8-4.12-3.91-8.11-5.56-12.29-.61-1.54-.32-3.44-.37-5.18s0-3.48,0-5.23Z"/><path class="cls-1" d="M59.23,49.18c4.86-.22,7.57,2.45,7.51,6.43s.49,7.93.14,11.84c-.15,1.68-1.61,3.58-3,4.71-1.76,1.42-3-.33-3.43-1.83a6.79,6.79,0,0,1,.39-3.64c1-3.15,2.59-6.18,3.07-9.39.26-1.73-1.16-3.79-2.08-5.57C61.34,50.82,60.29,50.2,59.23,49.18Z"/></svg>