<svg id="Layer_1" data-name="Layer 1" xmlns="http://www.w3.org/2000/svg" viewBox="0 0 100 100"><defs><style>.cls-1{fill:#ff931e;}</style></defs><title>logo-pigeonlab</title><path class="cls-1" d="M17.7,57.83h0c.21.76.76,1.09,1.46,1.45A2.18,2.18,0,0,0,17.7,57.83Z"/><path class="cls-1" d="M85.72,48.23l-1.28-.71C84.75,48,85,48.39,85.72,48.23Z"/><path class="cls-1" d="M45.6,48.06l0,0,.06-.1Z"/><path class="cls-1" d="M50.6,65.32c-.32,0-.65-.08-1-.13h0C50,65.25,50.29,65.29,50.6,65.32Z"/><path class="cls-1" d="M69.77,57.67v.16h.1l0,0a.08.08,0,0,0-.08-.14Z"/><path class="cls-1" d="M86.52,35.27c.1,0,.23,0,0-.2Z"/><path class="cls-1" d="M86.19,35.9c.34-.13.52-.3.32-.63h0C86.28,35.43,86.05,35.58,86.19,35.9Z"/><path class="cls-1" d="M49.63,65.19l-.17,0,.18,0Z"/><path class="cls-1" d="M49.46,65.16a1,1,0,0,0-.51-.09c-3.52-.74-7.75-7.52-8.07-8.25a1.16,1.16,0,0,1,.06-.51,186.87,186.87,0,0,1-35.18.35,60,60,0,0,0,7.35.74c1.15.06,2.51,0,3.32.67,2.07,1.73,4,3.56,6.18,5.23a26.83,26.83,0,0,0,3,2.27,32.55,32.55,0,0,0,14.89,4.21c.55,0,1.3.31,1.53-.14s-.47-.82-.86-1.15a.7.7,0,0,1-.25-.85c.16-.28.5-.08.74,0a22.12,22.12,0,0,0,9.51,0c.63-.11,1.35,0,2-.62a29.6,29.6,0,0,0-2.83-1.49L50,65.46C49.84,65.39,49.67,65.26,49.46,65.16ZM17.68,57.83h0a2.18,2.18,0,0,1,1.44,1.45C18.44,58.92,17.9,58.59,17.68,57.83Z"/><path class="cls-1" d="M86.2,35.93v0h0Z"/><path class="cls-1" d="M52.29,47.68c-2.81,2.79-3.89,5.09-4.29,6.87,2-.3,4.1-.64,6.15-1,.56-1.56,2.81-4.81,4.54-8A4.39,4.39,0,0,1,56.78,47c1.88-1.85,2.18-4.6,3.94-6.45a.85.85,0,0,0-.83-.28,8.36,8.36,0,0,0-3.39.31h0S54,45.79,52.29,47.68Z"/><path class="cls-1" d="M98.4,34.05c-1.09-.29-1.64-1.28-2.67-1.59a8.58,8.58,0,0,0-8.94,2.08.81.81,0,0,1,0-.26,2.06,2.06,0,0,1,.1-.39c.55-1.53.52-1.53-1.09-1.23a34.85,34.85,0,0,0-5.88,2,38.36,38.36,0,0,1-6,2.12,29.68,29.68,0,0,0-6,1.72,4.94,4.94,0,0,1-.42.47c-1.44,1.65-2.79,3.7-4.24,5.34a15.53,15.53,0,0,0-4.11,8.18c10-2.31,19.6-5.86,27-11.27C79.38,47.08,69.58,50.92,59,53.37c0,0,0,.09,0,.13,0,1.55,8.87,7.45,10.13,8,.38-.14.75-.28,1.11-.44.64-.28,1.74-.14,1.87-.81.17-.88-.92-1.18-1.53-1.67-.23-.19-.65-.32-.41-.69a.5.5,0,0,1,.7,0l0,0c1.57,1.48,3.27.92,4.91.27A17.37,17.37,0,0,0,81.53,55l-1.33-.2a.9.9,0,0,1-.88-.49h-.24c.06-.23.15-.15.26,0,4.13.13,7-2.3,10.3-4.85a18.79,18.79,0,0,1-2.11-.27c-.5-.13-1.09-.09-1.47-.65,2.83.8,5-.28,6.78-2.3.86-1,1.58-2.07,2.43-3.05.55-.62.59-1.15,0-1.71l-.23,0c.07-.21.15-.15.25,0,.37-.34,1-.07,1.28-.55,1-1.66,2.16-3.16,2.41-5.11C99.07,35.05,98.87,34.18,98.4,34.05ZM69.87,57.83h-.1v-.16a.08.08,0,0,1,.08.14ZM84.45,47.52l1.28.71C85,48.39,84.75,48,84.45,47.52Zm2.07-12.24c.19.32,0,.5-.32.63v0l0,0h0c-.14-.32.08-.47.29-.63h0l0-.2C86.74,35.23,86.62,35.25,86.52,35.27Z"/><path class="cls-1" d="M41.33,55.39c.85-1.72,2.74-4.52,4.31-7.3l0,0,.1-.07.18-.32.08-.08a25.78,25.78,0,0,1,1.7-4.16c.1-.28.46-.55.27-.85s-.65-.21-1-.14a13.49,13.49,0,0,0-5.2,2.47,55.73,55.73,0,0,0-5.37,4.63,2.07,2.07,0,0,1,.69-1.64A13.83,13.83,0,0,1,40.21,45a.65.65,0,0,0,.46-.6.64.64,0,0,0-.75-.4,7.48,7.48,0,0,0-1.09.12c-4.07.59-7.57,2.5-10.91,4.74a17.25,17.25,0,0,1-3.27,2.09,12.8,12.8,0,0,1,3-3.49,5.45,5.45,0,0,0-2.1,1.22q-1.6,1.54-3.27,3c-1,.92-2.41,1.22-3.49,2.14-.55.45-1.83,1.35-2.18,1-.88-1-1.64-.18-2,.1-1.81,1.54-3.92.95-5.92,1.05-.67,0-1.35-.09-2-.06-1.8.08-3.58-.55-5.4-.12l.7.16A227.81,227.81,0,0,0,41.33,55.39Z"/><path class="cls-1" d="M62,62.1A.89.89,0,0,0,61.5,62c-3.08-.65-6.73-6.35-7.39-7.6-2.08.4-4.17.74-6.25,1,0,.08,0,.17,0,.25,0,1.84,7,6,9.82,8.93a.7.7,0,0,0,0,.12A17.63,17.63,0,0,0,64.8,63.4a9.42,9.42,0,0,0-2.28-1A5.68,5.68,0,0,1,62,62.1Z"/><path class="cls-1" d="M47.35,45.31c.7-1.63,1.91-3.1,3.55-3.23,2-.15,3.75-1,5.6-1.52a25.93,25.93,0,0,1-5.57,1.3c-1.71.13-2.93,1.64-3.66,3.34A7.1,7.1,0,0,1,46,47.58c0,.07,0,.13,0,.2A6.15,6.15,0,0,0,47.35,45.31Z"/><path class="cls-1" d="M50,65c-.36-.14-.67-.5-1.21-.35a8.5,8.5,0,0,0,.85.56c.33.05.65.1,1,.13-.32,0-.64-.07-1-.13l.68.38a13.27,13.27,0,0,0,6.75,1.06c1-.16.79-1.41.77-1.41s-.11-.28-.16-.45h-.25c.73.8.35,1.19-.59,1.35"/><polygon class="cls-1" points="45.85 47.88 45.9 47.84 45.9 47.8 45.88 47.82 45.85 47.88"/><path class="cls-1" d="M45.64,48.09l.06,0,.15-.26L45.7,48Z"/><path class="cls-1" d="M64.8,63.4l0,0a5.87,5.87,0,0,0,2.87-1.16s1.16-.54,1.48-.69h0a22.82,22.82,0,0,0-2.77,1.1C65.87,62.93,65.34,63.17,64.8,63.4Z"/><path class="cls-1" d="M57.22,64.72h.12l0,0Z"/><path class="cls-1" d="M61.18,41A2.89,2.89,0,0,1,63,39.71c.39.41-.56.87,0,1.17.33.16.63-.25.93-.43a29.67,29.67,0,0,1,4-1.95s0,0,0,0a18.2,18.2,0,0,1-4.69,1.15c-1.59.13-2.73,1.8-3.43,3.39a14.18,14.18,0,0,1-1.09,2.5v0a4.38,4.38,0,0,0,.6-1A17.42,17.42,0,0,1,61.18,41Z"/><path class="cls-1" d="M1.3,55.86a18.06,18.06,0,0,0,4.47.8Q3.87,56.35,2,55.92Z"/><polygon class="cls-1" points="57.37 64.73 57.4 64.75 57.4 64.73 57.37 64.73"/><path class="cls-1" d="M49.46,65.16c.2.09.37.22.55.29l.31.11-.68-.38Z"/><path class="cls-1" d="M57.34,64.72h0Z"/><path class="cls-1" d="M57.4,64.75h0Z"/><path class="cls-1" d="M45.9,47.8h0Z"/><path class="cls-1" d="M45.7,48l.15-.11h0l0-.05,0,0h0c0-.07,0-.13,0-.2l-.08.08Z"/><path class="cls-1" d="M69.26,61.52l-.08,0C69.31,61.63,69.35,61.62,69.26,61.52Z"/></svg>