<svg id="Layer_1" data-name="Layer 1" xmlns="http://www.w3.org/2000/svg" viewBox="0 0 100 100"><title>logo-pandafan</title><path d="M35.27,63.52C31.92,69.44,21.9,70.13,17,65.29a6,6,0,0,1,0-8.65,100.59,100.59,0,0,1,8.79-8.78,13.9,13.9,0,0,1,6.62-2.77c4.1-.57,6.36,1.89,6.24,6C39,51.22,37.34,59.85,35.27,63.52Z"/><path d="M74.51,68.37c-6.45,0-10.81-3.91-12.21-11.17a42.68,42.68,0,0,1-.67-6.5c-.13-3.49,1.74-5.55,5.26-5.68A10.23,10.23,0,0,1,76,49.38a21.53,21.53,0,0,0,4.21,4.56c3.15,2.34,6.06,4.91,4.55,9.13s-5.5,4.8-9.35,5.3A7,7,0,0,1,74.51,68.37Z"/><path d="M5.61,37.7C-.14,33-.37,24.94,5.33,18.15c7.39-8.81,15.78-5.26,20.36,2.76Z"/><path d="M74.46,20.72c2.92-3.8,6.24-8.07,12.4-7.65,4.73.32,10.37,6.27,11.78,11.92,1.34,5.37-.22,9.92-4,12.69Z"/><path d="M50,80.23c1.51,0,3,0,4.54,0,3.58.1,4.95,2.42,3.11,5.47S52.81,89,49.7,89c-2.89,0-5.46-.83-6.94-3.53s-.21-5.06,3-5.11c1.42,0,2.84,0,4.26,0Z"/></svg>