<svg id="Layer_1" data-name="Layer 1" xmlns="http://www.w3.org/2000/svg" viewBox="0 0 400 139"><defs><style>.cls-1{fill:#ff7bac;}.cls-2{fill:#f7d0e0;}.cls-3{fill:#fff;}</style></defs><title>paperplane-problem</title><path class="cls-1" d="M183.27,70.5A55.35,55.35,0,0,1,200,30.79a55.53,55.53,0,1,0,0,79.43A55.35,55.35,0,0,1,183.27,70.5Z"/><path class="cls-2" d="M238.79,15A55.33,55.33,0,0,0,200,30.79a55.49,55.49,0,0,1,0,79.43A55.52,55.52,0,1,0,238.79,15Z"/><path class="cls-3" d="M216.73,70.5A55.35,55.35,0,0,0,200,30.79a55.49,55.49,0,0,0,0,79.43A55.35,55.35,0,0,0,216.73,70.5Z"/><path class="cls-1" d="M197.93,71.87a6.69,6.69,0,0,1,.38-2.49,5.1,5.1,0,0,1,1.39-1.82A7.11,7.11,0,0,0,201,66.1a2.29,2.29,0,0,0,.34-1.19q0-1.89-1.74-1.89a1.77,1.77,0,0,0-1.32.51,2,2,0,0,0-.52,1.4h-3.24a4.29,4.29,0,0,1,1.38-3.33,6.39,6.39,0,0,1,7.38-.06,4.06,4.06,0,0,1,1.31,3.23,3.93,3.93,0,0,1-.42,1.79,7.39,7.39,0,0,1-1.49,1.87l-.9.86a3.06,3.06,0,0,0-1,1.91l0,.68Zm-.32,3.42a1.62,1.62,0,0,1,.51-1.23,2,2,0,0,1,2.6,0,1.73,1.73,0,0,1,0,2.44,2,2,0,0,1-2.63,0A1.61,1.61,0,0,1,197.61,75.28Z"/><path class="cls-3" d="M132.94,61v2.23h-.75V57.57h2.11a2.12,2.12,0,0,1,1.47.48,1.62,1.62,0,0,1,.53,1.26,1.59,1.59,0,0,1-.52,1.28,2.21,2.21,0,0,1-1.49.45Zm0-.61h1.35a1.35,1.35,0,0,0,.93-.28,1,1,0,0,0,.32-.82,1.07,1.07,0,0,0-.32-.81,1.27,1.27,0,0,0-.88-.32h-1.4Z"/><path class="cls-3" d="M137.93,63.26h-.73v-6h.73Z"/><path class="cls-3" d="M141.71,63.26a1.5,1.5,0,0,1-.1-.45,1.62,1.62,0,0,1-1.21.52,1.5,1.5,0,0,1-1-.35,1.14,1.14,0,0,1-.4-.9,1.2,1.2,0,0,1,.5-1,2.38,2.38,0,0,1,1.42-.37h.71v-.33a.81.81,0,0,0-.23-.6.92.92,0,0,0-.67-.22,1.06,1.06,0,0,0-.65.2.57.57,0,0,0-.26.47h-.73a1,1,0,0,1,.23-.61,1.54,1.54,0,0,1,.61-.47,2.07,2.07,0,0,1,.85-.17,1.68,1.68,0,0,1,1.15.37,1.32,1.32,0,0,1,.43,1v1.95a2.38,2.38,0,0,0,.15.93v.06Zm-1.2-.55a1.28,1.28,0,0,0,.65-.18,1.07,1.07,0,0,0,.44-.46v-.87H141q-1.33,0-1.33.78a.66.66,0,0,0,.23.53A.88.88,0,0,0,140.5,62.71Z"/><path class="cls-3" d="M144.84,62.2l1-3.17h.78l-1.71,4.88q-.4,1.06-1.26,1.06h-.14l-.27-.05v-.59l.2,0a1,1,0,0,0,.57-.15,1.08,1.08,0,0,0,.34-.54l.16-.43L143,59h.79Z"/><path class="cls-3" d="M149,63.34a1.86,1.86,0,0,1-1.4-.57,2.09,2.09,0,0,1-.54-1.51v-.13a2.54,2.54,0,0,1,.24-1.12,1.89,1.89,0,0,1,.67-.77,1.7,1.7,0,0,1,.94-.28,1.59,1.59,0,0,1,1.29.54,2.35,2.35,0,0,1,.46,1.56v.3H147.8a1.5,1.5,0,0,0,.37,1,1.15,1.15,0,0,0,.89.39,1.26,1.26,0,0,0,.65-.16,1.64,1.64,0,0,0,.47-.41l.44.34A1.78,1.78,0,0,1,149,63.34Zm-.09-3.79a1,1,0,0,0-.74.32,1.55,1.55,0,0,0-.37.89h2.13v-.05a1.38,1.38,0,0,0-.3-.85A.91.91,0,0,0,148.93,59.55Z"/><path class="cls-3" d="M153.56,59.68l-.36,0a1,1,0,0,0-1,.61v3h-.73V59h.71v.49a1.13,1.13,0,0,1,1-.57.74.74,0,0,1,.32.05Z"/><path class="cls-3" d="M156.94,59.54A1.54,1.54,0,0,1,158.2,59q1.34,0,1.36,1.51v2.8h-.73v-2.8a1,1,0,0,0-.21-.68.84.84,0,0,0-.64-.22,1,1,0,0,0-.62.19,1.27,1.27,0,0,0-.42.49v3h-.73v-6h.73Z"/><path class="cls-3" d="M163.26,63.26a1.5,1.5,0,0,1-.1-.45,1.62,1.62,0,0,1-1.21.52,1.5,1.5,0,0,1-1-.35,1.14,1.14,0,0,1-.4-.9,1.2,1.2,0,0,1,.5-1,2.38,2.38,0,0,1,1.42-.37h.71v-.33a.81.81,0,0,0-.23-.6.92.92,0,0,0-.67-.22,1.06,1.06,0,0,0-.65.2.57.57,0,0,0-.26.47h-.73a1,1,0,0,1,.23-.61,1.54,1.54,0,0,1,.61-.47,2.07,2.07,0,0,1,.85-.17,1.68,1.68,0,0,1,1.15.37,1.32,1.32,0,0,1,.43,1v1.95a2.38,2.38,0,0,0,.15.93v.06Zm-1.2-.55a1.28,1.28,0,0,0,.65-.18,1.07,1.07,0,0,0,.44-.46v-.87h-.57q-1.33,0-1.33.78a.66.66,0,0,0,.23.53A.88.88,0,0,0,162.05,62.71Z"/><path class="cls-3" d="M167.48,62.14a.53.53,0,0,0-.22-.46,2.14,2.14,0,0,0-.77-.28,3.64,3.64,0,0,1-.87-.28,1.24,1.24,0,0,1-.48-.39.93.93,0,0,1-.16-.54,1.1,1.1,0,0,1,.44-.88,1.73,1.73,0,0,1,1.13-.36,1.78,1.78,0,0,1,1.17.37,1.18,1.18,0,0,1,.45,1h-.73a.65.65,0,0,0-.25-.51,1,1,0,0,0-.64-.22,1,1,0,0,0-.62.17.54.54,0,0,0-.22.45.44.44,0,0,0,.21.4,2.57,2.57,0,0,0,.75.25,3.91,3.91,0,0,1,.88.29,1.28,1.28,0,0,1,.5.4,1,1,0,0,1,.16.58,1.08,1.08,0,0,1-.46.91,1.91,1.91,0,0,1-1.18.34,2.14,2.14,0,0,1-.9-.18,1.46,1.46,0,0,1-.61-.5,1.21,1.21,0,0,1-.22-.7h.73a.75.75,0,0,0,.29.58,1.14,1.14,0,0,0,.72.21,1.17,1.17,0,0,0,.66-.17A.51.51,0,0,0,167.48,62.14Z"/><path class="cls-3" d="M132.43,72.88V69.2h-.67v-.56h.67v-.43a1.44,1.44,0,0,1,.36-1.05,1.38,1.38,0,0,1,1-.37,1.92,1.92,0,0,1,.5.07l0,.58a2.07,2.07,0,0,0-.39,0,.71.71,0,0,0-.54.21.84.84,0,0,0-.19.59v.45h.91v.56h-.91v3.67Z"/><path class="cls-3" d="M136.91,69.29l-.36,0a1,1,0,0,0-1,.61v3h-.73V68.64h.71v.49a1.13,1.13,0,0,1,1-.57.74.74,0,0,1,.32.05Z"/><path class="cls-3" d="M139.34,73a1.86,1.86,0,0,1-1.4-.57,2.09,2.09,0,0,1-.54-1.51v-.13a2.54,2.54,0,0,1,.24-1.12,1.89,1.89,0,0,1,.67-.77,1.7,1.7,0,0,1,.94-.28,1.59,1.59,0,0,1,1.29.54,2.35,2.35,0,0,1,.46,1.56V71h-2.87a1.5,1.5,0,0,0,.37,1,1.15,1.15,0,0,0,.89.39,1.26,1.26,0,0,0,.65-.16,1.64,1.64,0,0,0,.47-.41l.44.34A1.78,1.78,0,0,1,139.34,73Zm-.09-3.79a1,1,0,0,0-.74.32,1.55,1.55,0,0,0-.37.89h2.13v-.05a1.38,1.38,0,0,0-.3-.85A.91.91,0,0,0,139.25,69.16Z"/><path class="cls-3" d="M143.59,73a1.86,1.86,0,0,1-1.4-.57,2.09,2.09,0,0,1-.54-1.51v-.13a2.54,2.54,0,0,1,.24-1.12,1.89,1.89,0,0,1,.67-.77,1.7,1.7,0,0,1,.94-.28,1.59,1.59,0,0,1,1.29.54,2.35,2.35,0,0,1,.46,1.56V71h-2.87a1.5,1.5,0,0,0,.37,1,1.15,1.15,0,0,0,.89.39,1.26,1.26,0,0,0,.65-.16,1.64,1.64,0,0,0,.47-.41l.44.34A1.78,1.78,0,0,1,143.59,73Zm-.09-3.79a1,1,0,0,0-.74.32,1.55,1.55,0,0,0-.37.89h2.13v-.05a1.38,1.38,0,0,0-.3-.85A.91.91,0,0,0,143.5,69.16Z"/><path class="cls-3" d="M145.91,70.72a2.48,2.48,0,0,1,.46-1.57,1.58,1.58,0,0,1,2.39-.08V66.87h.73v6h-.67l0-.45a1.48,1.48,0,0,1-1.21.53,1.45,1.45,0,0,1-1.2-.6,2.51,2.51,0,0,1-.46-1.57Zm.73.08a1.88,1.88,0,0,0,.3,1.13,1,1,0,0,0,.82.41,1.06,1.06,0,0,0,1-.62V69.78a1.07,1.07,0,0,0-1-.6,1,1,0,0,0-.83.41A2.06,2.06,0,0,0,146.64,70.81Z"/><path class="cls-3" d="M150.42,70.72a2.49,2.49,0,0,1,.25-1.12,1.83,1.83,0,0,1,.68-.77,1.86,1.86,0,0,1,1-.27,1.79,1.79,0,0,1,1.4.6,2.3,2.3,0,0,1,.53,1.59v.05a2.51,2.51,0,0,1-.24,1.11,1.8,1.8,0,0,1-.68.76,1.88,1.88,0,0,1-1,.27,1.79,1.79,0,0,1-1.4-.6,2.29,2.29,0,0,1-.54-1.58Zm.73.09a1.81,1.81,0,0,0,.33,1.13,1.11,1.11,0,0,0,1.75,0,2,2,0,0,0,.32-1.21,1.81,1.81,0,0,0-.33-1.13,1.06,1.06,0,0,0-.88-.43,1,1,0,0,0-.87.43A2,2,0,0,0,151.15,70.81Z"/><path class="cls-3" d="M155.88,68.64l0,.47a1.57,1.57,0,0,1,1.26-.55,1.21,1.21,0,0,1,1.21.68,1.61,1.61,0,0,1,.55-.49,1.63,1.63,0,0,1,.8-.19q1.4,0,1.42,1.47v2.84h-.73V70.08a1,1,0,0,0-.21-.68.92.92,0,0,0-.7-.22,1,1,0,0,0-.67.24,1,1,0,0,0-.31.65v2.81h-.73V70.1a.81.81,0,0,0-.91-.92,1,1,0,0,0-1,.61v3.09h-.73V68.64Z"/><path class="cls-3" d="M165.2,67.62v1H166v.56h-.79v2.63a.59.59,0,0,0,.11.38.45.45,0,0,0,.36.13,1.77,1.77,0,0,0,.34,0v.58a2.12,2.12,0,0,1-.56.08.9.9,0,0,1-.73-.29,1.26,1.26,0,0,1-.25-.83V69.2h-.77v-.56h.77v-1Z"/><path class="cls-3" d="M166.57,70.72a2.49,2.49,0,0,1,.25-1.12,1.83,1.83,0,0,1,.68-.77,1.86,1.86,0,0,1,1-.27,1.79,1.79,0,0,1,1.4.6,2.3,2.3,0,0,1,.53,1.59v.05a2.51,2.51,0,0,1-.24,1.11,1.8,1.8,0,0,1-.68.76,1.88,1.88,0,0,1-1,.27,1.79,1.79,0,0,1-1.4-.6,2.29,2.29,0,0,1-.54-1.58Zm.73.09a1.81,1.81,0,0,0,.33,1.13,1.11,1.11,0,0,0,1.75,0,2,2,0,0,0,.32-1.21,1.81,1.81,0,0,0-.33-1.13,1.06,1.06,0,0,0-.88-.43,1,1,0,0,0-.87.43A2,2,0,0,0,167.3,70.81Z"/><path class="cls-3" d="M133.83,82.57a1.86,1.86,0,0,1-1.4-.57,2.09,2.09,0,0,1-.54-1.51v-.13a2.54,2.54,0,0,1,.24-1.12,1.89,1.89,0,0,1,.67-.77,1.7,1.7,0,0,1,.94-.28,1.59,1.59,0,0,1,1.29.54,2.35,2.35,0,0,1,.46,1.56v.3h-2.87a1.5,1.5,0,0,0,.37,1,1.15,1.15,0,0,0,.89.39,1.26,1.26,0,0,0,.65-.16,1.64,1.64,0,0,0,.47-.41l.44.34A1.78,1.78,0,0,1,133.83,82.57Zm-.09-3.79a1,1,0,0,0-.74.32,1.55,1.55,0,0,0-.37.89h2.13v-.05a1.38,1.38,0,0,0-.3-.85A.91.91,0,0,0,133.74,78.77Z"/><path class="cls-3" d="M137.75,79.8l.94-1.54h.85l-1.39,2.09,1.43,2.14h-.84l-1-1.58-1,1.58h-.84l1.43-2.14L136,78.26h.84Z"/><path class="cls-3" d="M143.89,80.42a2.53,2.53,0,0,1-.44,1.56,1.42,1.42,0,0,1-1.2.59,1.56,1.56,0,0,1-1.22-.49v2h-.73V78.26H141l0,.47a1.5,1.5,0,0,1,1.23-.55,1.45,1.45,0,0,1,1.21.57,2.56,2.56,0,0,1,.45,1.6Zm-.73-.08a1.86,1.86,0,0,0-.31-1.13,1,1,0,0,0-.84-.41,1.07,1.07,0,0,0-1,.58v2a1.07,1.07,0,0,0,1,.58,1,1,0,0,0,.83-.41A2,2,0,0,0,143.17,80.34Z"/><path class="cls-3" d="M145.6,82.49h-.73v-6h.73Z"/><path class="cls-3" d="M146.57,80.33a2.49,2.49,0,0,1,.25-1.12,1.83,1.83,0,0,1,.68-.77,1.86,1.86,0,0,1,1-.27,1.79,1.79,0,0,1,1.4.6,2.3,2.3,0,0,1,.53,1.59v.05a2.51,2.51,0,0,1-.24,1.11,1.8,1.8,0,0,1-.68.76,1.88,1.88,0,0,1-1,.27,1.79,1.79,0,0,1-1.4-.6,2.29,2.29,0,0,1-.54-1.58Zm.73.09a1.81,1.81,0,0,0,.33,1.13,1.11,1.11,0,0,0,1.75,0,2,2,0,0,0,.32-1.21,1.81,1.81,0,0,0-.33-1.13,1.06,1.06,0,0,0-.88-.43,1,1,0,0,0-.87.43A2,2,0,0,0,147.3,80.42Z"/><path class="cls-3" d="M153.39,78.9l-.36,0a1,1,0,0,0-1,.61v3h-.73V78.26H152v.49a1.13,1.13,0,0,1,1-.57.74.74,0,0,1,.32.05Z"/><path class="cls-3" d="M155.82,82.57a1.86,1.86,0,0,1-1.4-.57,2.09,2.09,0,0,1-.54-1.51v-.13a2.54,2.54,0,0,1,.24-1.12,1.89,1.89,0,0,1,.67-.77,1.7,1.7,0,0,1,.94-.28,1.59,1.59,0,0,1,1.29.54,2.35,2.35,0,0,1,.46,1.56v.3H154.6a1.5,1.5,0,0,0,.37,1,1.15,1.15,0,0,0,.89.39,1.26,1.26,0,0,0,.65-.16,1.64,1.64,0,0,0,.47-.41l.44.34A1.78,1.78,0,0,1,155.82,82.57Zm-.09-3.79a1,1,0,0,0-.74.32,1.55,1.55,0,0,0-.37.89h2.13v-.05a1.38,1.38,0,0,0-.3-.85A.91.91,0,0,0,155.73,78.77Z"/><path class="cls-1" d="M227,63.26V57.57h1.61a2.6,2.6,0,0,1,1.32.33,2.23,2.23,0,0,1,.88.93,3,3,0,0,1,.32,1.39v.36a3,3,0,0,1-.31,1.41,2.19,2.19,0,0,1-.89.93,2.76,2.76,0,0,1-1.35.33Zm.75-5.08v4.47h.79a1.73,1.73,0,0,0,1.35-.54,2.23,2.23,0,0,0,.48-1.54v-.33a2.26,2.26,0,0,0-.46-1.51,1.63,1.63,0,0,0-1.3-.55Z"/><path class="cls-1" d="M233.94,63.34a1.86,1.86,0,0,1-1.4-.57,2.09,2.09,0,0,1-.54-1.51v-.13a2.54,2.54,0,0,1,.24-1.12,1.89,1.89,0,0,1,.67-.77,1.7,1.7,0,0,1,.94-.28,1.59,1.59,0,0,1,1.29.54,2.35,2.35,0,0,1,.46,1.56v.3h-2.87a1.5,1.5,0,0,0,.37,1,1.15,1.15,0,0,0,.89.39,1.26,1.26,0,0,0,.65-.16,1.64,1.64,0,0,0,.47-.41l.44.34A1.78,1.78,0,0,1,233.94,63.34Zm-.09-3.79a1,1,0,0,0-.74.32,1.55,1.55,0,0,0-.37.89h2.13v-.05a1.38,1.38,0,0,0-.3-.85A.91.91,0,0,0,233.85,59.55Z"/><path class="cls-1" d="M238.9,62.14a.53.53,0,0,0-.22-.46,2.14,2.14,0,0,0-.77-.28,3.64,3.64,0,0,1-.87-.28,1.24,1.24,0,0,1-.48-.39.93.93,0,0,1-.16-.54,1.1,1.1,0,0,1,.44-.88A1.73,1.73,0,0,1,238,59a1.78,1.78,0,0,1,1.17.37,1.18,1.18,0,0,1,.45,1h-.73a.65.65,0,0,0-.25-.51,1,1,0,0,0-.64-.22,1,1,0,0,0-.62.17.54.54,0,0,0-.22.45.44.44,0,0,0,.21.4,2.57,2.57,0,0,0,.75.25,3.91,3.91,0,0,1,.88.29,1.28,1.28,0,0,1,.5.4,1,1,0,0,1,.16.58,1.08,1.08,0,0,1-.46.91,1.91,1.91,0,0,1-1.18.34,2.14,2.14,0,0,1-.9-.18,1.46,1.46,0,0,1-.61-.5,1.21,1.21,0,0,1-.22-.7H237a.75.75,0,0,0,.29.58,1.14,1.14,0,0,0,.72.21,1.17,1.17,0,0,0,.66-.17A.51.51,0,0,0,238.9,62.14Z"/><path class="cls-1" d="M240.58,57.91a.43.43,0,0,1,.11-.3.41.41,0,0,1,.32-.12.41.41,0,0,1,.32.12.43.43,0,0,1,.11.3.41.41,0,0,1-.11.29.42.42,0,0,1-.32.12.39.39,0,0,1-.43-.41Zm.78,5.35h-.73V59h.73Z"/><path class="cls-1" d="M242.35,61.11a2.48,2.48,0,0,1,.46-1.57,1.58,1.58,0,0,1,2.43,0l0-.47h.66v4.13a1.72,1.72,0,0,1-.49,1.29,1.8,1.8,0,0,1-1.31.47,2.19,2.19,0,0,1-.9-.2,1.54,1.54,0,0,1-.67-.54l.38-.43a1.42,1.42,0,0,0,1.14.57,1.11,1.11,0,0,0,.82-.3,1.13,1.13,0,0,0,.3-.84v-.36a1.49,1.49,0,0,1-1.19.5,1.45,1.45,0,0,1-1.21-.6A2.61,2.61,0,0,1,242.35,61.11Zm.73.08a1.89,1.89,0,0,0,.29,1.12,1,1,0,0,0,.82.41,1.06,1.06,0,0,0,1-.62V60.17a1.07,1.07,0,0,0-1-.61,1,1,0,0,0-.83.41A2.06,2.06,0,0,0,243.08,61.19Z"/><path class="cls-1" d="M247.71,59l0,.53A1.55,1.55,0,0,1,249,59q1.34,0,1.36,1.51v2.8h-.73v-2.8a1,1,0,0,0-.21-.68.84.84,0,0,0-.64-.22,1,1,0,0,0-.62.19,1.27,1.27,0,0,0-.42.49v3H247V59Z"/><path class="cls-1" d="M253.22,63.34a1.86,1.86,0,0,1-1.4-.57,2.09,2.09,0,0,1-.54-1.51v-.13a2.54,2.54,0,0,1,.24-1.12,1.89,1.89,0,0,1,.67-.77,1.7,1.7,0,0,1,.94-.28,1.59,1.59,0,0,1,1.29.54,2.35,2.35,0,0,1,.46,1.56v.3H252a1.5,1.5,0,0,0,.37,1,1.15,1.15,0,0,0,.89.39,1.26,1.26,0,0,0,.65-.16,1.64,1.64,0,0,0,.47-.41l.44.34A1.78,1.78,0,0,1,253.22,63.34Zm-.09-3.79a1,1,0,0,0-.74.32,1.55,1.55,0,0,0-.37.89h2.13v-.05a1.38,1.38,0,0,0-.3-.85A.91.91,0,0,0,253.13,59.55Z"/><path class="cls-1" d="M257.76,59.68l-.36,0a1,1,0,0,0-1,.61v3h-.73V59h.71v.49a1.13,1.13,0,0,1,1-.57.74.74,0,0,1,.32.05Z"/><path class="cls-1" d="M261.14,59.54A1.54,1.54,0,0,1,262.4,59q1.34,0,1.36,1.51v2.8H263v-2.8a1,1,0,0,0-.21-.68.84.84,0,0,0-.64-.22,1,1,0,0,0-.62.19,1.27,1.27,0,0,0-.42.49v3h-.73v-6h.73Z"/><path class="cls-1" d="M267.46,63.26a1.5,1.5,0,0,1-.1-.45,1.62,1.62,0,0,1-1.21.52,1.5,1.5,0,0,1-1-.35,1.14,1.14,0,0,1-.4-.9,1.2,1.2,0,0,1,.5-1,2.38,2.38,0,0,1,1.42-.37h.71v-.33a.81.81,0,0,0-.23-.6.92.92,0,0,0-.67-.22,1.06,1.06,0,0,0-.65.2.57.57,0,0,0-.26.47h-.73a1,1,0,0,1,.23-.61,1.54,1.54,0,0,1,.61-.47,2.07,2.07,0,0,1,.85-.17,1.68,1.68,0,0,1,1.15.37,1.32,1.32,0,0,1,.43,1v1.95a2.38,2.38,0,0,0,.15.93v.06Zm-1.2-.55a1.28,1.28,0,0,0,.65-.18,1.07,1.07,0,0,0,.44-.46v-.87h-.57q-1.33,0-1.33.78a.66.66,0,0,0,.23.53A.88.88,0,0,0,266.26,62.71Z"/><path class="cls-1" d="M271.68,62.14a.53.53,0,0,0-.22-.46,2.14,2.14,0,0,0-.77-.28,3.64,3.64,0,0,1-.87-.28,1.24,1.24,0,0,1-.48-.39.93.93,0,0,1-.16-.54,1.1,1.1,0,0,1,.44-.88,1.73,1.73,0,0,1,1.13-.36,1.78,1.78,0,0,1,1.17.37,1.18,1.18,0,0,1,.45,1h-.73a.65.65,0,0,0-.25-.51,1,1,0,0,0-.64-.22,1,1,0,0,0-.62.17.54.54,0,0,0-.22.45.44.44,0,0,0,.21.4,2.57,2.57,0,0,0,.75.25,3.91,3.91,0,0,1,.88.29,1.28,1.28,0,0,1,.5.4,1,1,0,0,1,.16.58,1.08,1.08,0,0,1-.46.91,1.91,1.91,0,0,1-1.18.34,2.14,2.14,0,0,1-.9-.18,1.46,1.46,0,0,1-.61-.5A1.21,1.21,0,0,1,269,62h.73a.75.75,0,0,0,.29.58,1.14,1.14,0,0,0,.72.21,1.17,1.17,0,0,0,.66-.17A.51.51,0,0,0,271.68,62.14Z"/><path class="cls-1" d="M228.61,72.36a1,1,0,0,0,.68-.23.83.83,0,0,0,.32-.59h.69a1.31,1.31,0,0,1-.25.69,1.65,1.65,0,0,1-.62.52,1.79,1.79,0,0,1-.82.2,1.75,1.75,0,0,1-1.38-.58,2.29,2.29,0,0,1-.51-1.58v-.12a2.54,2.54,0,0,1,.23-1.1,1.73,1.73,0,0,1,.65-.75,1.86,1.86,0,0,1,1-.27,1.7,1.7,0,0,1,1.19.43,1.52,1.52,0,0,1,.5,1.11h-.69a1,1,0,0,0-.31-.67,1,1,0,0,0-.69-.26,1,1,0,0,0-.86.4,1.86,1.86,0,0,0-.3,1.15v.14a1.82,1.82,0,0,0,.3,1.13A1,1,0,0,0,228.61,72.36Z"/><path class="cls-1" d="M230.92,70.72a2.49,2.49,0,0,1,.25-1.12,1.83,1.83,0,0,1,.68-.77,1.86,1.86,0,0,1,1-.27,1.79,1.79,0,0,1,1.4.6,2.3,2.3,0,0,1,.53,1.59v.05a2.51,2.51,0,0,1-.24,1.11,1.8,1.8,0,0,1-.68.76,1.88,1.88,0,0,1-1,.27,1.79,1.79,0,0,1-1.4-.6,2.29,2.29,0,0,1-.54-1.58Zm.73.09a1.81,1.81,0,0,0,.33,1.13,1.11,1.11,0,0,0,1.75,0,2,2,0,0,0,.32-1.21,1.81,1.81,0,0,0-.33-1.13,1.06,1.06,0,0,0-.88-.43,1,1,0,0,0-.87.43A2,2,0,0,0,231.65,70.81Z"/><path class="cls-1" d="M236.38,68.64l0,.53a1.55,1.55,0,0,1,1.27-.61q1.34,0,1.36,1.51v2.8h-.73v-2.8a1,1,0,0,0-.21-.68.84.84,0,0,0-.64-.22,1,1,0,0,0-.62.19,1.27,1.27,0,0,0-.42.49v3h-.73V68.64Z"/><path class="cls-1" d="M241.11,67.62v1h.79v.56h-.79v2.63a.59.59,0,0,0,.11.38.45.45,0,0,0,.36.13,1.77,1.77,0,0,0,.34,0v.58a2.12,2.12,0,0,1-.56.08.9.9,0,0,1-.73-.29,1.26,1.26,0,0,1-.25-.83V69.2h-.77v-.56h.77v-1Z"/><path class="cls-1" d="M244.8,69.29l-.36,0a1,1,0,0,0-1,.61v3h-.73V68.64h.71v.49a1.13,1.13,0,0,1,1-.57.74.74,0,0,1,.32.05Z"/><path class="cls-1" d="M245.2,70.72a2.49,2.49,0,0,1,.25-1.12,1.83,1.83,0,0,1,.68-.77,1.86,1.86,0,0,1,1-.27,1.79,1.79,0,0,1,1.4.6,2.3,2.3,0,0,1,.53,1.59v.05a2.51,2.51,0,0,1-.24,1.11,1.8,1.8,0,0,1-.68.76,1.88,1.88,0,0,1-1,.27,1.79,1.79,0,0,1-1.4-.6,2.29,2.29,0,0,1-.54-1.58Zm.73.09a1.81,1.81,0,0,0,.33,1.13,1.11,1.11,0,0,0,1.75,0,2,2,0,0,0,.32-1.21,1.81,1.81,0,0,0-.33-1.13,1.06,1.06,0,0,0-.88-.43,1,1,0,0,0-.87.43A2,2,0,0,0,245.93,70.81Z"/><path class="cls-1" d="M250.76,72.88H250v-6h.73Z"/><path class="cls-1" d="M253.71,70.72A2.49,2.49,0,0,1,254,69.6a1.83,1.83,0,0,1,.68-.77,1.86,1.86,0,0,1,1-.27,1.79,1.79,0,0,1,1.4.6,2.3,2.3,0,0,1,.53,1.59v.05a2.51,2.51,0,0,1-.24,1.11,1.8,1.8,0,0,1-.68.76,1.88,1.88,0,0,1-1,.27,1.79,1.79,0,0,1-1.4-.6,2.29,2.29,0,0,1-.54-1.58Zm.73.09a1.81,1.81,0,0,0,.33,1.13,1.11,1.11,0,0,0,1.75,0,2,2,0,0,0,.32-1.21,1.81,1.81,0,0,0-.33-1.13,1.06,1.06,0,0,0-.88-.43,1,1,0,0,0-.87.43A2,2,0,0,0,254.44,70.81Z"/><path class="cls-1" d="M259.83,71.89l1.05-3.25h.74l-1.52,4.23h-.55L258,68.64h.74Z"/><path class="cls-1" d="M264.08,73a1.86,1.86,0,0,1-1.4-.57,2.09,2.09,0,0,1-.54-1.51v-.13a2.54,2.54,0,0,1,.24-1.12,1.89,1.89,0,0,1,.67-.77,1.7,1.7,0,0,1,.94-.28,1.59,1.59,0,0,1,1.29.54,2.35,2.35,0,0,1,.46,1.56V71h-2.87a1.5,1.5,0,0,0,.37,1,1.15,1.15,0,0,0,.89.39,1.26,1.26,0,0,0,.65-.16,1.64,1.64,0,0,0,.47-.41l.44.34A1.78,1.78,0,0,1,264.08,73ZM264,69.16a1,1,0,0,0-.74.32,1.55,1.55,0,0,0-.37.89H265v-.05a1.38,1.38,0,0,0-.3-.85A.91.91,0,0,0,264,69.16Z"/><path class="cls-1" d="M268.62,69.29l-.36,0a1,1,0,0,0-1,.61v3h-.73V68.64h.71v.49a1.13,1.13,0,0,1,1-.57.74.74,0,0,1,.32.05Z"/><path class="cls-1" d="M227.9,77.23v1h.79v.56h-.79v2.63a.59.59,0,0,0,.11.38.45.45,0,0,0,.36.13,1.77,1.77,0,0,0,.34,0v.58a2.12,2.12,0,0,1-.56.08.9.9,0,0,1-.73-.29,1.26,1.26,0,0,1-.25-.83V78.81h-.77v-.56h.77v-1Z"/><path class="cls-1" d="M230.26,78.77a1.54,1.54,0,0,1,1.25-.59q1.34,0,1.36,1.51v2.8h-.73v-2.8a1,1,0,0,0-.21-.68.84.84,0,0,0-.64-.22,1,1,0,0,0-.62.19,1.27,1.27,0,0,0-.42.49v3h-.73v-6h.73Z"/><path class="cls-1" d="M235.72,82.57a1.86,1.86,0,0,1-1.4-.57,2.09,2.09,0,0,1-.54-1.51v-.13a2.54,2.54,0,0,1,.24-1.12,1.89,1.89,0,0,1,.67-.77,1.7,1.7,0,0,1,.94-.28,1.59,1.59,0,0,1,1.29.54,2.35,2.35,0,0,1,.46,1.56v.3H234.5a1.5,1.5,0,0,0,.37,1,1.15,1.15,0,0,0,.89.39,1.26,1.26,0,0,0,.65-.16,1.64,1.64,0,0,0,.47-.41l.44.34A1.78,1.78,0,0,1,235.72,82.57Zm-.09-3.79a1,1,0,0,0-.74.32,1.55,1.55,0,0,0-.37.89h2.13v-.05a1.38,1.38,0,0,0-.3-.85A.91.91,0,0,0,235.63,78.77Z"/><path class="cls-1" d="M240,80.34a2.48,2.48,0,0,1,.46-1.57,1.58,1.58,0,0,1,2.43,0l0-.47h.66v4.13a1.72,1.72,0,0,1-.49,1.29,1.8,1.8,0,0,1-1.31.47,2.19,2.19,0,0,1-.9-.2,1.54,1.54,0,0,1-.67-.54l.38-.43a1.42,1.42,0,0,0,1.14.57,1.11,1.11,0,0,0,.82-.3,1.13,1.13,0,0,0,.3-.84v-.36a1.49,1.49,0,0,1-1.19.5,1.45,1.45,0,0,1-1.21-.6A2.61,2.61,0,0,1,240,80.34Zm.73.08a1.89,1.89,0,0,0,.29,1.12,1,1,0,0,0,.82.41,1.06,1.06,0,0,0,1-.62V79.4a1.07,1.07,0,0,0-1-.61,1,1,0,0,0-.83.41A2.06,2.06,0,0,0,240.76,80.42Z"/><path class="cls-1" d="M247.33,82.49a1.5,1.5,0,0,1-.1-.45,1.62,1.62,0,0,1-1.21.52,1.5,1.5,0,0,1-1-.35,1.14,1.14,0,0,1-.4-.9,1.2,1.2,0,0,1,.5-1,2.38,2.38,0,0,1,1.42-.37h.71v-.33A.81.81,0,0,0,247,79a.92.92,0,0,0-.67-.22,1.06,1.06,0,0,0-.65.2.57.57,0,0,0-.26.47h-.73a1,1,0,0,1,.23-.61,1.54,1.54,0,0,1,.61-.47,2.07,2.07,0,0,1,.85-.17,1.68,1.68,0,0,1,1.15.37,1.32,1.32,0,0,1,.43,1V81.5a2.38,2.38,0,0,0,.15.93v.06Zm-1.2-.55a1.28,1.28,0,0,0,.65-.18,1.07,1.07,0,0,0,.44-.46v-.87h-.57q-1.33,0-1.33.78a.66.66,0,0,0,.23.53A.88.88,0,0,0,246.12,81.94Z"/><path class="cls-1" d="M249.76,78.26l0,.47a1.57,1.57,0,0,1,1.26-.55,1.21,1.21,0,0,1,1.21.68,1.61,1.61,0,0,1,.55-.49,1.63,1.63,0,0,1,.8-.19q1.4,0,1.42,1.47v2.84h-.73V79.69a1,1,0,0,0-.21-.68.92.92,0,0,0-.7-.22,1,1,0,0,0-.67.24,1,1,0,0,0-.31.65v2.81h-.73V79.71a.81.81,0,0,0-.91-.92,1,1,0,0,0-1,.61v3.09h-.73V78.26Z"/><path class="cls-1" d="M257.87,82.57a1.86,1.86,0,0,1-1.4-.57,2.09,2.09,0,0,1-.54-1.51v-.13a2.54,2.54,0,0,1,.24-1.12,1.89,1.89,0,0,1,.67-.77,1.7,1.7,0,0,1,.94-.28,1.59,1.59,0,0,1,1.29.54,2.35,2.35,0,0,1,.46,1.56v.3h-2.87a1.5,1.5,0,0,0,.37,1,1.15,1.15,0,0,0,.89.39,1.26,1.26,0,0,0,.65-.16,1.64,1.64,0,0,0,.47-.41l.44.34A1.78,1.78,0,0,1,257.87,82.57Zm-.09-3.79a1,1,0,0,0-.74.32,1.55,1.55,0,0,0-.37.89h2.13v-.05a1.38,1.38,0,0,0-.3-.85A.91.91,0,0,0,257.78,78.77Z"/><path class="cls-1" d="M264,80.42a2.53,2.53,0,0,1-.44,1.56,1.42,1.42,0,0,1-1.2.59,1.56,1.56,0,0,1-1.22-.49v2h-.73V78.26H261l0,.47a1.5,1.5,0,0,1,1.23-.55,1.45,1.45,0,0,1,1.21.57,2.56,2.56,0,0,1,.45,1.6Zm-.73-.08a1.86,1.86,0,0,0-.31-1.13,1,1,0,0,0-.84-.41,1.07,1.07,0,0,0-1,.58v2a1.07,1.07,0,0,0,1,.58,1,1,0,0,0,.83-.41A2,2,0,0,0,263.23,80.34Z"/><path class="cls-1" d="M265.66,82.49h-.73v-6h.73Z"/><path class="cls-1" d="M269.44,82.49a1.5,1.5,0,0,1-.1-.45,1.62,1.62,0,0,1-1.21.52,1.5,1.5,0,0,1-1-.35,1.14,1.14,0,0,1-.4-.9,1.2,1.2,0,0,1,.5-1,2.38,2.38,0,0,1,1.42-.37h.71v-.33a.81.81,0,0,0-.23-.6.92.92,0,0,0-.67-.22,1.06,1.06,0,0,0-.65.2.57.57,0,0,0-.26.47h-.73a1,1,0,0,1,.23-.61,1.54,1.54,0,0,1,.61-.47,2.07,2.07,0,0,1,.85-.17,1.68,1.68,0,0,1,1.15.37,1.32,1.32,0,0,1,.43,1V81.5a2.38,2.38,0,0,0,.15.93v.06Zm-1.2-.55a1.28,1.28,0,0,0,.65-.18,1.07,1.07,0,0,0,.44-.46v-.87h-.57q-1.33,0-1.33.78a.66.66,0,0,0,.23.53A.88.88,0,0,0,268.24,81.94Z"/><path class="cls-1" d="M272.58,81.43l1-3.17h.78l-1.71,4.88q-.4,1.06-1.26,1.06h-.14l-.27-.05v-.59l.2,0a1,1,0,0,0,.57-.15,1.08,1.08,0,0,0,.34-.54l.16-.43-1.51-4.18h.79Z"/></svg>