<svg id="Layer_1" data-name="Layer 1" xmlns="http://www.w3.org/2000/svg" viewBox="0 0 400 300"><defs><style>.cls-1{fill:#ccc;}</style></defs><title>pigeonlab-process-4</title><path class="cls-1" d="M298,80c-1,5.36-2,10.73-3,16.08-4.28,22-12.53,42.2-27.72,59-4.81,5.33-10.48,9.87-15.47,15.05a11.12,11.12,0,0,0-2.67,5.94c-1.51,11.46-8,20.22-15.27,28.47-12.12,13.7-26.91,24-42.84,32.75-2.72,1.49-5.85,3.24-8.79-.47-3.09-3.89-.42-6.67,1.66-9.08A69.73,69.73,0,0,0,198,201.15a74.88,74.88,0,0,0,1.9-7.55c.5-2.77-.17-4.71-3.09-6.4a86.08,86.08,0,0,1-32-32c-1.8-3.11-4-3.78-6.85-3.14-12.42,2.74-24,7.36-33.68,15.93-1.6,1.41-4,2.79-6,2.77-4.54,0-6.61-4.4-4.4-8.57,9.4-17.73,21.11-33.79,36.39-46.84,7.27-6.21,15.46-11.59,25.57-12.44,5-.42,7.54-4.29,10.08-7.63,7.12-9.35,16.54-15.84,26.26-22C228.55,63.11,246.77,58.31,265.49,55c2.17-.38,4.34-.69,6.51-1h26ZM287.84,64c-7.86.7-15.28.88-22.52,2.11-20.47,3.5-39.77,10.13-56.53,22.91a95.78,95.78,0,0,0-35.6,53.29c-.62,2.38.36,5.71,1.67,8,6.58,11.29,15.83,20.11,26.92,26.89a11.8,11.8,0,0,0,8,1.6C225.68,175,239.45,167,251.42,156c12.42-11.4,21.12-25.45,27.08-41.11C284.65,98.73,287,81.79,287.84,64ZM236.7,180.42c-5.6,2.51-9.72,5.53-14.15,6.09-9.33,1.19-13,6.13-13.52,15-.25,4.1-2,8.11-3.31,13.34C218.94,205.31,229.72,195.57,236.7,180.42Zm-66-64.77c-14.27,6.78-24.26,17.37-33.31,30.45,7.41-1.82,14-3.35,20.45-5.07,1.67-.44,4.13-1.1,4.6-2.3C165.37,131.41,167.82,123.91,170.71,115.65Z"/><path class="cls-1" d="M104,239c4-9,7.58-18.23,12.11-27,5.57-10.73,11.49-21.35,21.84-28.58,11.92-8.33,22.34-4.07,29.06,3.29,8.48,9.28,7.81,21.33-.74,30.47C157,227.1,145.54,233.6,133.34,239q-10.16,4.51-20.34,9h-9Zm14.56-5.71c2.74-1,4.55-1.54,6.24-2.34,12.13-5.77,24.35-11.4,33.53-21.75,4.68-5.27,5-10.21.58-14.77-5.31-5.53-10-6.07-15.42-1.36C131.33,203.7,125.12,218,118.56,233.29Z"/><path class="cls-1" d="M260,117.23c-1.2,15-10,24.58-25.1,24.54S210,131.71,210.23,116.53c.28-15,9.95-24.34,25.11-24.33C249.57,92.21,259.39,103,260,117.23ZM234.76,131A14.35,14.35,0,0,0,249,117.12c.08-7.42-6.59-14.14-14-14.12-7.29,0-13.88,6.47-14,13.66C220.91,124.27,227.3,130.94,234.76,131Z"/></svg>