<svg id="Layer_1" data-name="Layer 1" xmlns="http://www.w3.org/2000/svg" viewBox="0 0 400 300"><defs><style>.cls-1{fill:#ccc;}</style></defs><title>pigeonlab-process-2</title><path class="cls-1" d="M319,160c-8.25,7.75-16.14,15.93-24.84,23.14a198.66,198.66,0,0,1-41.1,26.34c-19.43,9.29-39.81,14.31-61.38,12.42-19.8-1.73-37.93-9-55.06-18.81C116.69,191.68,99.39,176.92,83,161v-8c6.67-6.17,13.12-12.63,20.07-18.47,17.59-14.78,36.38-27.71,58.25-35.5a122.73,122.73,0,0,1,34.36-7.25c18.27-1.06,35.18,3.18,51.77,10,18.31,7.54,34.39,18.71,49.66,31C304.83,139,311.73,146.24,319,153ZM201.23,192c11.48-1,22.11-4.18,30.65-12.4C247.36,164.7,251.79,147,243.79,127c-3.13-7.83-7.46-15.89-16.28-18.62-14.38-4.45-29.2-6-44-2.26-5.07,1.28-10.86,2.58-14.55,5.85-11.61,10.31-16,23.65-14,39.26C157.88,174.17,177.51,191.12,201.23,192ZM256,120.59c8.79,29.17,4.71,54.63-20.27,72.69-20.63,14.91-43.88,16.16-65.66,2.47C142,178.1,136.32,151.8,146,120.42c-18.09,10.11-33.36,22.5-47.83,36.29a214.75,214.75,0,0,0,42.07,33.08c23.16,14,47.5,22.55,75.11,18.27a107.5,107.5,0,0,0,36.26-12.6c12.46-7,24.19-15.4,35.83-23.75,5.81-4.17,10.72-9.59,16.16-14.56A201,201,0,0,0,256,120.59Z"/></svg>