<svg id="Layer_1" data-name="Layer 1" xmlns="http://www.w3.org/2000/svg" viewBox="0 0 400 300"><defs><style>.cls-1{fill:#ccc;}</style></defs><title>pigeonlab-process-3</title><path class="cls-1" d="M297,260H111l-10-10q0-93,0-186c4.5-8.59,11.94-11.1,21.18-11.07,55.49.14,111,.07,166.47.07C300.5,53,308,60.5,308,72.36c0,55.49-.07,111,.07,166.47C308.1,248.06,305.59,255.5,297,260ZM204.5,65h-83c-7.94,0-9.54,1.56-9.55,9.52q0,82.45,0,164.9c0,7.34,2.26,9.58,9.68,9.58h165.9c6.57,0,8.41-1.9,8.41-8.61q0-83.45,0-166.9c0-6.6-1.89-8.48-8.54-8.48Z"/><path class="cls-1" d="M221,157q0,31.22,0,62.43c0,6.67-1.87,8.54-8.45,8.56-6.16,0-12.32.08-18.48,0-4.8-.08-7-2.19-7-6.94Q187,157.1,187,93.17C187,88,189.19,86,194.21,86c6.33,0,12.65,0,19,0,5.93,0,7.79,1.88,7.8,8.06Q221,125.53,221,157Zm-12.34,58.78V98.22h-9.4V215.77Z"/><path class="cls-1" d="M177,173.66c0,16-.15,32,.09,47.92.07,4.92-2.14,6.44-6.48,6.43-6.82,0-13.65,0-20.47,0-4,0-6.12-2.1-6.12-6.08,0-32.62-.08-65.23.16-97.85,0-1.72,2.47-4.82,3.93-4.91,8.13-.5,16.31-.37,24.47-.23,3.61.06,4.47,2.53,4.46,5.81C177,141,177,157.35,177,173.66Zm-11.22-43.31h-9.4v85.39h9.4Z"/><path class="cls-1" d="M231,194.28c0-8.83.17-17.66-.08-26.48-.12-4.22,2-5.7,5.6-5.76,7.33-.12,14.66-.07,22,0,3.57,0,5.47,1.94,5.48,5.51,0,18.32.08,36.64,0,55,0,3.4-2.12,5.46-5.67,5.49-7.16.06-14.32,0-21.49,0-4.13,0-5.83-2.24-5.8-6.23C231,212.6,231,203.44,231,194.28Zm12.34-20.06v41.56h8.4V174.22Z"/></svg>