<svg id="Layer_1" data-name="Layer 1" xmlns="http://www.w3.org/2000/svg" viewBox="0 0 400 300"><defs><style>.cls-1{fill:#ccc;}</style></defs><title>pigeonlab-process-6</title><path class="cls-1" d="M82,159l23.87-23.38c3.59-3.52,8.18-3.88,11.78-.4,7.43,7.17,14.72,14.5,21.94,21.89,3.39,3.48,3.37,7.75.34,10.46-2.77,2.48-6.81,2-10-1.18-3.73-3.74-7.41-7.53-11.66-11.85,1.72,24.93,11.84,44.72,30,60,12.87,10.84,27.88,16.94,45,18.59,17.64,1.71,33.6-2.12,48.86-10.66,13.62-7.62,23.5-18.75,31.61-31.78,3-4.89,6-5.93,9.56-3.66,4.21,2.67,3.45,6.56,1.65,10-8.09,15.57-20.08,27.54-35.08,36.43A92.35,92.35,0,0,1,216,245.83a96.21,96.21,0,0,1-52.46-6.64c-18.23-7.78-32.86-19.85-43.33-36.61-7.94-12.72-13.51-26.44-14.24-41.73-.07-1.49-.68-2.95-1.34-5.68-3.93,4.19-7,7.67-10.3,10.93-3.82,3.79-7.84,4-12.33.9Z"/><path class="cls-1" d="M320,143q-11.76,11.5-23.51,23c-4.1,4-8.5,4.34-12.49.45q-10.92-10.63-21.55-21.55c-3.38-3.47-3.4-7.75-.41-10.46,2.78-2.52,6.82-2.11,10,1.11,3.73,3.75,7.39,7.55,11.89,12.15-3.21-33-18.69-56.47-47-71.1a73.71,73.71,0,0,0-39.89-8.46c-28.93,2.29-51.55,15.69-67,40.53-.69,1.1-1.33,2.24-2.07,3.31-2.11,3.08-4.45,5.09-8.61,3.15-4.58-2.14-4.38-6-2.66-9.13a104.32,104.32,0,0,1,11.85-17.9c15.23-17.66,34.81-28.22,57.69-31.92a93.23,93.23,0,0,1,52.4,6.7c18.23,7.81,32.82,19.93,43.24,36.68,7.91,12.71,13.52,26.44,14.1,41.75a7.37,7.37,0,0,0,.13,2,29.18,29.18,0,0,0,1.88,3.46c3.28-3.72,6.23-7.29,9.41-10.63,4-4.2,7.77-4.44,12.58-1.14Z"/></svg>